<svg xmlns="http://www.w3.org/2000/svg" xmlns:xlink="http://www.w3.org/1999/xlink" width="180" zoomAndPan="magnify" viewBox="0 0 135 135.000003" height="180" preserveAspectRatio="xMidYMid meet" version="1.0"><path fill="#ffffff" d="M 72.570312 11.65625 L 72.992188 11.675781 C 80.265625 12.003906 87.300781 13.816406 93.476562 17.734375 C 96.835938 19.933594 99.976562 22.691406 102.425781 25.878906 C 102.550781 26.035156 102.679688 26.1875 102.804688 26.339844 C 105.867188 30.03125 108.46875 34.402344 109.941406 38.980469 C 110.03125 39.253906 110.121094 39.527344 110.214844 39.800781 C 112.332031 46.164062 112.464844 53.089844 111.203125 59.644531 C 110.332031 63.875 108.898438 67.90625 107.109375 71.828125 C 106.953125 72.167969 106.800781 72.511719 106.648438 72.855469 C 104.570312 77.472656 101.664062 81.757812 98.558594 85.738281 C 98.347656 86.011719 98.136719 86.28125 97.929688 86.554688 C 97.261719 87.417969 96.574219 88.25 95.835938 89.050781 C 95.386719 89.550781 94.972656 90.074219 94.550781 90.597656 C 94.296875 90.898438 94.039062 91.15625 93.746094 91.421875 L 93.414062 91.789062 C 93.40625 92.128906 93.40625 92.128906 93.554688 92.496094 C 93.765625 92.804688 93.976562 93.085938 94.214844 93.375 L 94.421875 93.632812 C 94.648438 93.910156 94.875 94.1875 95.101562 94.464844 L 95.339844 94.753906 C 95.75 95.253906 96.160156 95.753906 96.574219 96.253906 C 97.546875 97.429688 98.507812 98.613281 99.460938 99.808594 C 99.972656 100.453125 100.5 101.089844 101.027344 101.726562 C 101.601562 102.421875 102.167969 103.117188 102.714844 103.835938 C 103.113281 104.34375 103.527344 104.839844 103.941406 105.335938 C 104.546875 106.070312 105.148438 106.808594 105.734375 107.5625 C 106.402344 108.417969 107.089844 109.257812 107.78125 110.09375 C 108.292969 110.714844 108.800781 111.339844 109.300781 111.972656 C 109.71875 112.488281 110.144531 113 110.566406 113.511719 C 111.320312 114.425781 112.0625 115.34375 112.789062 116.28125 C 113.003906 116.558594 113.222656 116.832031 113.449219 117.101562 L 113.726562 117.4375 L 113.96875 117.722656 C 114.117188 117.984375 114.117188 117.984375 114.117188 118.257812 C 113.902344 118.695312 113.546875 118.960938 113.171875 119.261719 L 112.929688 119.464844 C 112.167969 120.085938 111.398438 120.691406 110.621094 121.292969 C 110.179688 121.636719 109.753906 121.992188 109.328125 122.351562 C 108.894531 122.195312 108.71875 122.019531 108.414062 121.664062 C 108.285156 121.496094 108.160156 121.332031 108.035156 121.164062 C 107.894531 120.980469 107.753906 120.800781 107.617188 120.621094 L 107.410156 120.351562 C 107.144531 120.007812 106.871094 119.671875 106.597656 119.339844 C 105.992188 118.601562 105.386719 117.859375 104.78125 117.117188 C 104.269531 116.484375 103.761719 115.851562 103.253906 115.214844 C 102.964844 114.859375 102.675781 114.5 102.382812 114.148438 C 101.898438 113.558594 101.425781 112.960938 100.957031 112.359375 C 100.472656 111.738281 99.976562 111.125 99.46875 110.519531 C 98.976562 109.933594 98.496094 109.339844 98.023438 108.734375 C 97.28125 107.78125 96.515625 106.847656 95.746094 105.917969 C 94.667969 104.613281 93.605469 103.300781 92.550781 101.980469 C 91.945312 101.226562 91.332031 100.480469 90.714844 99.730469 C 90.394531 99.339844 90.074219 98.945312 89.75 98.550781 L 89.542969 98.296875 C 88.25 96.726562 87.042969 95.253906 86.652344 93.199219 C 86.519531 91.898438 86.5625 90.609375 87.074219 89.394531 L 87.183594 89.109375 C 87.5 88.375 87.992188 87.839844 88.535156 87.261719 C 88.953125 86.808594 89.351562 86.34375 89.75 85.875 C 90.230469 85.308594 90.71875 84.753906 91.222656 84.210938 C 92.113281 83.226562 92.898438 82.152344 93.695312 81.085938 L 93.945312 80.753906 C 95.101562 79.21875 96.199219 77.652344 97.214844 76.015625 L 97.417969 75.691406 C 99.0625 73.046875 100.53125 70.304688 101.722656 67.425781 L 101.847656 67.125 C 103.007812 64.292969 103.9375 61.414062 104.539062 58.414062 L 104.605469 58.105469 C 105.734375 52.773438 105.453125 47.054688 103.8125 41.863281 C 103.273438 40.234375 102.667969 38.664062 101.863281 37.148438 L 101.695312 36.828125 C 100.976562 35.476562 100.214844 34.167969 99.328125 32.921875 L 99.109375 32.617188 C 98.125 31.234375 97.117188 29.929688 95.949219 28.699219 C 95.78125 28.503906 95.613281 28.3125 95.445312 28.117188 C 94.816406 27.390625 94.15625 26.636719 93.375 26.074219 L 93.132812 25.878906 L 93.132812 25.597656 L 92.816406 25.488281 C 92.414062 25.3125 92.152344 25.113281 91.820312 24.824219 C 89.226562 22.710938 86.03125 21.101562 82.851562 20.105469 L 82.492188 19.992188 C 80.4375 19.363281 78.359375 18.976562 76.230469 18.699219 L 75.847656 18.648438 C 69.40625 17.832031 62.296875 18.71875 56.285156 21.199219 C 54.191406 22.09375 52.269531 23.230469 50.460938 24.613281 L 50.085938 24.890625 C 49.175781 25.597656 48.363281 26.398438 47.546875 27.210938 L 47.207031 27.546875 C 44.015625 30.753906 41.769531 34.832031 39.757812 38.835938 L 39.53125 39.285156 C 39.167969 40 38.816406 40.714844 38.507812 41.453125 L 38.296875 41.953125 L 38.183594 42.21875 C 38.058594 42.519531 37.929688 42.820312 37.796875 43.121094 C 37.203125 44.496094 36.675781 45.882812 36.191406 47.300781 C 36.046875 47.734375 35.890625 48.164062 35.726562 48.589844 C 35.164062 50.058594 34.683594 51.550781 34.21875 53.050781 C 33.46875 55.472656 32.632812 57.851562 31.757812 60.230469 C 30.738281 62.996094 29.726562 65.761719 28.804688 68.5625 L 28.703125 68.871094 C 28.183594 70.433594 27.816406 72.007812 27.503906 73.621094 L 27.925781 73.558594 C 29.8125 73.269531 31.726562 73.09375 33.558594 73.761719 C 34.347656 74.113281 34.957031 74.519531 35.53125 75.171875 L 35.738281 75.386719 C 36.410156 76.113281 36.921875 76.929688 37.164062 77.898438 C 37.363281 78.871094 37.378906 79.777344 37.316406 80.761719 L 37.296875 81.179688 C 37.265625 81.769531 37.226562 82.351562 37.148438 82.933594 C 36.957031 84.503906 36.996094 86.070312 37.265625 87.625 L 37.316406 87.921875 C 37.425781 88.492188 37.609375 88.910156 37.925781 89.394531 L 37.925781 89.675781 L 38.175781 89.800781 C 38.363281 89.894531 38.550781 89.992188 38.734375 90.09375 C 40.207031 90.886719 41.648438 91.050781 43.296875 91.003906 C 46.605469 90.824219 50.441406 89.757812 53.417969 88.269531 L 53.417969 87.996094 C 53.429688 82.003906 53.445312 76.015625 53.460938 70.027344 L 53.460938 69.636719 C 53.46875 67.570312 53.472656 65.5 53.476562 63.429688 C 53.480469 61.304688 53.488281 59.179688 53.492188 57.058594 C 53.496094 55.746094 53.5 54.4375 53.503906 53.128906 C 53.503906 52.226562 53.507812 51.328125 53.507812 50.429688 C 53.511719 49.910156 53.511719 49.390625 53.511719 48.875 C 53.511719 48.308594 53.515625 47.746094 53.519531 47.183594 L 53.519531 46.695312 C 53.527344 45.042969 53.734375 43.445312 54.269531 41.882812 L 54.398438 41.503906 C 55.003906 39.800781 55.886719 38.226562 57.078125 36.867188 L 57.433594 36.453125 C 59.136719 34.519531 61.265625 33.015625 63.675781 32.082031 C 65.097656 31.621094 66.566406 31.285156 68.0625 31.230469 L 68.472656 31.210938 C 72.632812 31.089844 77.121094 32.128906 80.800781 34.085938 C 82.65625 35.121094 84.28125 36.378906 85.808594 37.851562 L 86.113281 38.136719 C 87.535156 39.488281 88.5625 41.078125 89.472656 42.800781 C 89.59375 43.03125 89.722656 43.261719 89.847656 43.492188 C 90.898438 45.464844 91.441406 47.640625 91.863281 49.820312 L 91.957031 50.292969 C 92.851562 55.265625 92.078125 60.570312 90.457031 65.3125 C 89.785156 67.15625 88.988281 68.9375 88.0625 70.664062 L 87.800781 71.15625 C 85.496094 75.347656 82.074219 79.265625 78.203125 82.074219 L 77.929688 82.273438 C 75.082031 84.347656 72.074219 86.179688 69.050781 87.988281 L 68.59375 88.257812 C 66.050781 89.777344 63.449219 91.160156 60.789062 92.464844 C 60.472656 92.605469 60.472656 92.605469 60.316406 92.777344 C 60.300781 93.128906 60.296875 93.480469 60.296875 93.835938 L 60.292969 94.175781 C 60.292969 94.554688 60.292969 94.933594 60.289062 95.3125 L 60.289062 96.121094 C 60.285156 96.707031 60.28125 97.289062 60.28125 97.871094 C 60.277344 98.792969 60.273438 99.714844 60.269531 100.636719 C 60.261719 102.59375 60.253906 104.550781 60.246094 106.507812 C 60.238281 108.617188 60.230469 110.730469 60.222656 112.84375 C 60.21875 113.757812 60.214844 114.675781 60.210938 115.59375 C 60.210938 116.164062 60.207031 116.734375 60.203125 117.304688 C 60.203125 117.566406 60.203125 117.832031 60.203125 118.097656 C 60.203125 118.457031 60.199219 118.820312 60.199219 119.179688 L 60.199219 119.5 C 60.195312 119.746094 60.1875 119.992188 60.175781 120.238281 L 60.035156 120.378906 C 59.835938 120.390625 59.640625 120.398438 59.441406 120.398438 L 58.214844 120.398438 C 57.917969 120.398438 57.621094 120.398438 57.324219 120.398438 C 56.867188 120.398438 56.414062 120.398438 55.957031 120.398438 C 55.667969 120.398438 55.382812 120.398438 55.09375 120.398438 L 53.953125 120.398438 L 53.699219 120.378906 L 53.558594 120.238281 C 53.546875 119.921875 53.539062 119.601562 53.539062 119.285156 L 53.539062 118.980469 C 53.539062 118.640625 53.539062 118.300781 53.542969 117.960938 L 53.542969 117.230469 C 53.542969 116.570312 53.542969 115.910156 53.542969 115.246094 C 53.542969 114.558594 53.542969 113.867188 53.542969 113.175781 C 53.546875 111.867188 53.546875 110.558594 53.546875 109.25 C 53.550781 107.761719 53.550781 106.273438 53.550781 104.785156 C 53.550781 101.71875 53.554688 98.65625 53.558594 95.59375 L 53.070312 95.738281 L 52.421875 95.925781 L 52.101562 96.023438 C 47.851562 97.277344 43.324219 98.414062 38.90625 97.351562 C 36.707031 96.785156 34.859375 95.871094 33.21875 94.277344 C 31.886719 92.867188 31.191406 91.261719 30.742188 89.394531 C 30.410156 87.988281 30.421875 86.589844 30.433594 85.152344 C 30.433594 84.757812 30.433594 84.367188 30.433594 83.972656 C 30.4375 82.628906 30.46875 81.296875 30.601562 79.960938 L 30.355469 80.027344 C 28.457031 80.472656 26.328125 80.265625 24.484375 79.714844 C 23.367188 79.304688 22.566406 78.632812 21.804688 77.726562 C 21.34375 77.085938 21.054688 76.367188 20.882812 75.59375 C 20.34375 69.433594 23.511719 63.058594 25.605469 57.390625 C 26.410156 55.210938 27.15625 53.011719 27.878906 50.800781 C 30.558594 42.609375 30.558594 42.609375 32.21875 39.027344 C 32.382812 38.664062 32.542969 38.304688 32.699219 37.941406 C 34.632812 33.503906 37.144531 29.234375 40.179688 25.457031 L 40.355469 25.234375 C 41.359375 23.988281 42.46875 22.859375 43.609375 21.738281 C 43.816406 21.539062 44.019531 21.335938 44.222656 21.132812 C 48.136719 17.230469 53.257812 14.785156 58.53125 13.339844 C 63.054688 12.164062 67.886719 11.445312 72.570312 11.65625 M 63.699219 39.542969 C 62.476562 40.417969 61.613281 41.613281 60.9375 42.941406 C 60.308594 44.371094 60.132812 45.722656 60.144531 47.269531 L 60.140625 47.761719 C 60.140625 48.304688 60.144531 48.847656 60.144531 49.390625 C 60.144531 49.78125 60.144531 50.171875 60.144531 50.558594 C 60.144531 51.398438 60.144531 52.238281 60.148438 53.074219 C 60.148438 54.289062 60.148438 55.5 60.152344 56.710938 C 60.152344 58.679688 60.152344 60.644531 60.15625 62.609375 C 60.15625 64.519531 60.160156 66.429688 60.160156 68.339844 L 60.160156 68.699219 L 60.164062 70.472656 C 60.164062 75.371094 60.171875 80.269531 60.175781 85.171875 C 62.269531 84.683594 64.269531 83.152344 66.089844 82.074219 L 66.667969 81.734375 C 70.304688 79.585938 73.945312 77.324219 77 74.390625 C 77.203125 74.199219 77.40625 74.007812 77.613281 73.820312 C 79.382812 72.125 80.777344 70.101562 82.003906 67.988281 L 82.15625 67.734375 C 84.332031 64.011719 85.648438 59.382812 85.695312 55.066406 C 85.691406 51.789062 85.144531 48.484375 83.523438 45.589844 C 82.785156 44.324219 81.921875 43.246094 80.878906 42.21875 L 80.59375 41.933594 C 78.757812 40.214844 76.195312 39.039062 73.761719 38.472656 C 72.945312 38.296875 72.125 38.140625 71.300781 37.992188 L 70.875 37.910156 C 68.242188 37.546875 65.902344 38.058594 63.699219 39.542969 " fill-opacity="1" fill-rule="nonzero"/></svg>